<svg width="55" height="56" viewBox="0 0 55 56" fill="none" xmlns="http://www.w3.org/2000/svg">
<rect x="0.5" y="0.781738" width="54" height="54" rx="5.5" stroke="#1E1E1E" stroke-opacity="0.52"/>
<path d="M20.7598 16.7935C19.3543 16.7935 18.2109 17.9369 18.2109 19.3423V24.4399C18.2109 24.9092 18.5913 25.2896 19.0605 25.2896C19.5298 25.2896 19.9102 24.9092 19.9102 24.4399V21.8911H21.6094V24.4399C21.6094 24.9092 21.9898 25.2896 22.459 25.2896C22.9282 25.2896 23.3086 24.9092 23.3086 24.4399V19.3423C23.3086 17.9369 22.1652 16.7935 20.7598 16.7935ZM19.9102 20.1919V19.3423C19.9102 18.8738 20.2913 18.4927 20.7598 18.4927C21.2282 18.4927 21.6094 18.8738 21.6094 19.3423V20.1919H19.9102Z" fill="black"/>
<path d="M39.4512 23.5903H29.2559C28.958 23.5903 28.6722 23.6422 28.4062 23.7365V15.8306C28.4062 14.4251 27.2628 13.2817 25.8574 13.2817H15.5488C14.1434 13.2817 13 14.4251 13 15.8306V31.2368C13 31.4049 13.0498 31.5692 13.1431 31.7089C13.2365 31.8487 13.3692 31.9576 13.5244 32.0219C13.6797 32.0862 13.8505 32.103 14.0154 32.0702C14.1802 32.0374 14.3316 31.9565 14.4504 31.8376L17.6 28.688H25.8574C26.1553 28.688 26.4411 28.6362 26.707 28.5419V36.3345C26.707 37.7399 27.8504 38.8833 29.2559 38.8833H37.4L40.5496 42.0329C40.6684 42.1517 40.8198 42.2326 40.9846 42.2654C41.1494 42.2982 41.3203 42.2814 41.4755 42.2171C41.6308 42.1528 41.7634 42.0439 41.8568 41.9042C41.9502 41.7644 42 41.6002 42 41.4321V26.1392C42 24.7337 40.8567 23.5903 39.4512 23.5903ZM25.8574 26.9888H17.248C17.0227 26.9888 16.8066 27.0783 16.6473 27.2376L14.6992 29.1857V15.8306C14.6992 15.3621 15.0804 14.981 15.5488 14.981H25.8574C26.3259 14.981 26.707 15.3621 26.707 15.8306V26.1392C26.707 26.6076 26.326 26.9888 25.8574 26.9888ZM40.3008 39.381L38.3527 37.433C38.2738 37.3541 38.1802 37.2915 38.0771 37.2488C37.974 37.2061 37.8635 37.1841 37.752 37.1841H29.2559C28.7874 37.1841 28.4062 36.803 28.4062 36.3345V26.1392C28.4062 25.6707 28.7874 25.2896 29.2559 25.2896H39.4512C39.9196 25.2896 40.3008 25.6707 40.3008 26.1392V39.381Z" fill="black"/>
<path d="M33.5039 32.0864H36.0527C36.5219 32.0864 36.9023 31.706 36.9023 31.2368C36.9023 30.7676 36.5219 30.3872 36.0527 30.3872H34.3535C33.885 30.3872 33.5039 30.0061 33.5039 29.5376C33.5039 29.0691 33.885 28.688 34.3535 28.688C34.6559 28.688 34.929 28.8434 35.0842 29.1037C35.3246 29.5067 35.8461 29.6385 36.2491 29.3981C36.652 29.1578 36.7839 28.6363 36.5436 28.2333C36.0858 27.4656 35.2466 26.9888 34.3535 26.9888C32.9481 26.9888 31.8047 28.1322 31.8047 29.5376C31.8041 29.9758 31.9172 30.4067 32.133 30.7881C31.4251 31.2414 30.9551 32.0348 30.9551 32.936C30.9551 34.3415 32.0985 35.4849 33.5039 35.4849H36.0527C36.5219 35.4849 36.9023 35.1045 36.9023 34.6353C36.9023 34.166 36.5219 33.7856 36.0527 33.7856H33.5039C33.0354 33.7856 32.6543 33.4045 32.6543 32.936C32.6543 32.4676 33.0354 32.0864 33.5039 32.0864Z" fill="black"/>
</svg>
