<svg width="204" height="204" viewBox="0 0 204 204" fill="none" xmlns="http://www.w3.org/2000/svg">
<path d="M197.191 124.356C197.027 123.581 196.312 122.874 196.099 122.117C195.834 121.175 196.058 120.189 195.721 119.281C194.255 115.319 192.116 111.64 189.397 108.407C189.021 107.961 187.116 108.856 186.727 108.435C186.276 107.946 187.339 106.143 186.859 105.678C183.743 102.641 180.112 100.181 176.137 98.4106C174.92 97.8687 173.145 98.721 171.862 98.313C170.776 97.9675 170.192 96.3427 169.065 96.0997C166.48 95.533 163.842 95.2484 161.196 95.251C158.495 95.251 155.861 95.5418 153.327 96.0997C151.998 96.3861 151.274 98.1265 150.003 98.5544C148.923 98.9182 147.287 97.9512 146.255 98.4106C142.279 100.181 138.649 102.641 135.533 105.678C135.019 106.175 136.306 108.659 135.825 109.185C135.469 109.574 133.339 107.999 132.999 108.403C130.279 111.636 128.138 115.315 126.671 119.277C126.346 120.154 126.698 121.098 126.441 122.003C126.215 122.795 125.372 123.544 125.201 124.357C124.659 126.892 124.387 129.478 124.389 132.071C124.389 134.951 125.126 138.533 126.397 142.55C126.624 143.291 126.875 144.044 127.142 144.805C131.875 158.36 141.796 175.99 149.717 188.426C150.301 189.342 151.772 189.432 152.331 190.288C152.936 191.215 152.626 192.901 153.196 193.749C155.351 196.96 157.224 199.566 158.614 201.315C158.842 201.598 159.443 201.633 159.642 201.873C160.654 203.08 161.67 203.067 162.682 201.86C162.881 201.621 163.551 201.598 163.778 201.315C165.169 199.566 167.041 196.96 169.197 193.749C169.784 192.876 169.572 191.284 170.197 190.327C170.738 189.497 172.112 189.311 172.675 188.426C180.596 175.99 190.517 158.36 195.251 144.805C195.518 144.044 195.769 143.291 195.992 142.557C197.267 138.533 198.004 134.951 198.004 132.071C198.006 129.478 197.733 126.892 197.191 124.356ZM163.256 153.494C162.579 153.558 161.893 154.823 161.196 154.823C160.499 154.823 159.813 153.558 159.136 153.494C148.908 152.494 140.828 144.147 140.25 133.799C140.226 133.401 138.559 133.339 138.559 132.937C138.559 132.726 140.218 132.182 140.226 131.975C140.529 121.587 148.378 113.097 158.479 111.786C159.371 111.674 160.4 109.261 161.321 109.261C162.241 109.261 163.021 111.674 163.913 111.786C174.018 113.101 181.863 121.587 182.166 131.975C182.174 132.182 183.755 132.616 183.752 132.76C183.746 133.014 182.157 133.546 182.142 133.799C181.56 144.151 173.484 152.494 163.256 153.494Z" fill="#2B3D16"/>
<path d="M153.557 97.3901C153.557 99.446 151.892 101.115 149.836 101.115C149.026 101.115 148.238 100.851 147.591 100.363C146.945 99.8746 146.475 99.1891 146.254 98.4101C148.525 97.3982 150.895 96.6238 153.326 96.0991C153.477 96.5015 153.557 96.9358 153.557 97.3901ZM164.92 109.24C164.92 110.224 164.538 111.12 163.912 111.786C163.011 111.672 162.103 111.615 161.195 111.614C160.275 111.614 159.37 111.674 158.482 111.786C157.83 111.098 157.468 110.187 157.47 109.24C157.47 107.184 159.139 105.514 161.195 105.514C163.251 105.514 164.92 107.184 164.92 109.24ZM140.349 109.24C140.349 111.296 138.683 112.961 136.627 112.961C134.567 112.961 132.902 111.296 132.902 109.24C132.902 108.953 132.934 108.67 132.998 108.403C133.795 107.452 134.641 106.542 135.532 105.678C135.878 105.57 136.245 105.514 136.627 105.514C138.683 105.514 140.349 107.184 140.349 109.24ZM140.249 133.795C139.859 135.441 138.384 136.66 136.627 136.66C134.567 136.66 132.902 134.995 132.902 132.935C132.902 130.879 134.567 129.213 136.627 129.213C138.353 129.213 139.803 130.385 140.225 131.974C140.217 132.182 140.213 132.393 140.213 132.604C140.213 133.006 140.225 133.401 140.249 133.795ZM127.141 121.089C127.141 121.758 126.961 122.414 126.619 122.989C126.278 123.564 125.788 124.037 125.2 124.356C125.567 122.615 126.061 120.918 126.67 119.28C126.981 119.832 127.143 120.456 127.141 121.089ZM176.136 98.4101C175.915 99.1891 175.445 99.8746 174.799 100.363C174.152 100.851 173.364 101.115 172.554 101.115C170.499 101.115 168.833 99.446 168.833 97.3901C168.833 96.9358 168.913 96.5015 169.064 96.0991C171.495 96.6238 173.865 97.3982 176.136 98.4101ZM189.488 109.24C189.488 111.296 187.823 112.961 185.763 112.961C183.707 112.961 182.041 111.296 182.041 109.24C182.041 107.184 183.707 105.514 185.763 105.514C186.145 105.514 186.512 105.57 186.858 105.678C187.751 106.542 188.588 107.447 189.392 108.403C189.456 108.674 189.488 108.953 189.488 109.24ZM189.488 132.935C189.488 134.995 187.823 136.66 185.763 136.66C184.006 136.66 182.531 135.441 182.141 133.799C182.165 133.401 182.177 133.006 182.177 132.604C182.177 132.393 182.173 132.182 182.165 131.974C182.377 131.182 182.844 130.482 183.495 129.983C184.145 129.483 184.943 129.213 185.763 129.213C187.823 129.213 189.488 130.879 189.488 132.935ZM197.19 124.356C196.602 124.037 196.112 123.564 195.771 122.989C195.429 122.414 195.249 121.758 195.249 121.089C195.249 120.432 195.417 119.814 195.72 119.28C196.329 120.918 196.823 122.615 197.19 124.356ZM164.92 156.598C164.92 158.654 163.251 160.323 161.195 160.323C159.139 160.323 157.47 158.654 157.47 156.598C157.47 155.303 158.131 154.159 159.135 153.494C159.812 153.558 160.498 153.594 161.195 153.594C161.892 153.594 162.578 153.558 163.255 153.494C163.767 153.833 164.188 154.295 164.479 154.836C164.769 155.378 164.921 155.983 164.92 156.598Z" fill="#7C0631"/>
<path d="M140.307 157.196C140.637 155.165 139.258 153.252 137.228 152.923C135.198 152.593 133.285 153.972 132.955 156.002C132.626 158.033 134.004 159.946 136.034 160.275C138.065 160.605 139.978 159.226 140.307 157.196Z" fill="#7C0631"/>
<path d="M161.196 184.02C163.253 184.02 164.92 182.353 164.92 180.296C164.92 178.239 163.253 176.572 161.196 176.572C159.139 176.572 157.472 178.239 157.472 180.296C157.472 182.353 159.139 184.02 161.196 184.02Z" fill="#7C0631"/>
<path d="M149.835 172.171C151.891 172.171 153.559 170.503 153.559 168.447C153.559 166.39 151.891 164.722 149.835 164.722C147.778 164.722 146.11 166.39 146.11 168.447C146.11 170.503 147.778 172.171 149.835 172.171Z" fill="#7C0631"/>
<path d="M153.558 192.147C153.558 192.72 153.43 193.262 153.195 193.748C152.099 192.119 150.932 190.334 149.717 188.425C149.757 188.421 149.796 188.421 149.836 188.421C151.892 188.421 153.558 190.087 153.558 192.147ZM163.778 201.315C163.551 201.597 163.335 201.86 163.136 202.1C162.124 203.307 160.267 203.307 159.255 202.1C159.056 201.86 158.841 201.597 158.614 201.315C159.283 200.665 160.196 200.271 161.196 200.271C162.196 200.271 163.108 200.665 163.778 201.315Z" fill="#7C0631"/>
<path d="M189.446 157.195C189.775 155.165 188.397 153.252 186.366 152.922C184.336 152.593 182.423 153.971 182.094 156.002C181.764 158.032 183.143 159.945 185.173 160.274C187.203 160.604 189.116 159.225 189.446 157.195Z" fill="#7C0631"/>
<path d="M172.556 172.171C174.613 172.171 176.28 170.503 176.28 168.447C176.28 166.39 174.613 164.722 172.556 164.722C170.499 164.722 168.832 166.39 168.832 168.447C168.832 170.503 170.499 172.171 172.556 172.171Z" fill="#7C0631"/>
<path d="M172.675 188.425C171.46 190.334 170.292 192.119 169.197 193.748C168.956 193.249 168.832 192.701 168.834 192.147C168.834 190.087 170.499 188.421 172.555 188.421C172.595 188.421 172.635 188.421 172.675 188.425Z" fill="#7C0631"/>
<path d="M72.7105 15.3519C72.4208 14.9479 71.9483 16.1683 71.6419 15.7767C71.2865 15.3224 71.0948 13.2585 70.7183 12.8218C68.4937 10.2344 65.922 7.96708 63.0762 6.08426C62.7515 5.86712 62.4125 6.75802 62.0802 6.55322C61.7479 6.34843 61.4227 5.04833 61.0841 4.85309C58.6934 3.48247 56.1315 2.37083 53.438 1.562C53.1615 1.47753 52.7225 3.00195 52.442 2.92505C52.0598 2.81987 51.8339 1.11615 51.4459 1.02451C48.94 0.418495 46.3771 0.0792639 43.7998 0.0124749C43.4691 0.00450611 43.1384 2.00984 42.8037 2.00984C42.4691 2.00984 42.1384 0.00450611 41.8077 0.0124749C39.2304 0.0792639 36.6675 0.418495 34.1616 1.02451C33.8034 1.10937 33.5186 2.40509 33.1655 2.50112C32.8552 2.58558 32.4751 1.46876 32.1695 1.562C29.5035 2.36345 26.9381 3.46768 24.5234 4.85309C24.1573 5.06426 23.8859 6.50063 23.5273 6.72256C23.2225 6.91142 22.8297 5.88465 22.5312 6.08426C19.6855 7.96708 17.1138 10.2344 14.8892 12.8218C14.4669 13.3115 14.4083 14.7897 14.0127 15.3017C13.7517 15.6396 13.1457 15.0049 12.897 15.3519C8.55406 21.3962 5.99609 28.8072 5.99609 36.8197C5.99609 42.4497 8.81703 50.765 12.897 59.7578C13.1963 60.4208 14.0382 59.3075 14.3517 59.9777C14.702 60.7256 14.5254 63.2568 14.8892 64.0091C17.232 68.8421 19.8538 73.7788 22.5312 78.5202C22.8086 79.0115 23.6696 78.0225 23.9481 78.5094C24.3338 79.1832 24.137 81.3308 24.5234 81.9946C26.9767 86.2198 29.526 90.3886 32.1695 94.4975C32.4683 94.9597 33.3385 93.7983 33.6293 94.2433C34.0055 94.8191 33.7999 96.9957 34.1616 97.5416C36.9467 101.733 39.3134 105.008 40.8634 106.849C41.1182 107.153 41.4419 107.392 41.8077 107.546C42.1555 107.695 42.4312 106.398 42.8037 106.383C43.1097 106.371 43.5142 107.669 43.7998 107.546C44.1545 107.399 44.4772 107.164 44.7441 106.849C46.2941 105.008 48.6608 101.733 51.4459 97.5416C51.7371 97.1017 51.9618 94.8039 52.2627 94.3449C52.624 93.7931 53.0639 95.0761 53.438 94.4975C55.8406 90.7682 58.4623 86.5089 61.0841 81.9946C61.4164 81.4236 61.4594 79.3079 61.7913 78.7298C62.124 78.1496 62.7451 79.1071 63.0762 78.5202C65.7537 73.7788 68.3755 68.8421 70.7183 64.0091C71.1394 63.1373 71.1713 60.877 71.5741 60.0116C71.8303 59.4613 72.4638 60.3032 72.7105 59.7578C76.7905 50.765 79.6114 42.4497 79.6114 36.8197C79.6114 28.8072 77.0534 21.3962 72.7105 15.3519ZM63.0762 42.7764C62.8133 43.7669 62.6316 46.3858 62.232 47.3126C61.9355 47.9999 61.4502 47.011 61.0841 47.6572C59.2643 50.8806 56.627 53.5674 53.438 55.4467C53.1464 55.6188 52.8862 57.395 52.585 57.5532C52.224 57.7429 51.8196 56.3117 51.4459 56.4786C49.0372 57.5715 46.4421 58.195 43.7998 58.3154C43.4691 58.3314 43.1384 60.0964 42.8037 60.0964C42.4691 60.0964 42.1384 58.3314 41.8077 58.3154C39.1654 58.195 36.5703 57.5715 34.1616 56.4786C33.7652 56.3013 33.4182 57.7389 33.0361 57.5361C32.7571 57.3883 32.44 55.6061 32.1695 55.4467C28.9804 53.5674 26.3432 50.8806 24.5234 47.6572C24.1621 47.0201 23.5971 47.6843 23.3038 47.0074C22.8986 46.0714 22.797 43.7776 22.5312 42.7764C22.0691 41.0472 21.822 39.2303 21.822 37.3536C21.822 35.477 22.0691 33.6601 22.5312 31.9309C22.7874 30.9659 22.8671 28.6171 23.2532 27.7126C23.5572 26.9998 24.1441 27.719 24.5234 27.05C26.343 23.8255 28.9802 21.1374 32.1695 19.2566C32.4902 19.0673 33.0261 17.6111 33.358 17.4381C33.6903 17.2652 33.819 18.3761 34.1616 18.2207C36.5124 17.1568 39.0903 16.5154 41.8077 16.3879C42.1384 16.3719 42.3149 14.9965 42.6496 14.9965C42.9842 14.9965 43.4691 16.3715 43.7998 16.3879C46.5172 16.5154 49.0951 17.1568 51.4459 18.2207C51.7853 18.3745 52.1128 17.1146 52.442 17.2855C52.7774 17.4597 53.1145 19.0658 53.438 19.2566C56.6272 21.1374 59.2645 23.8255 61.0841 27.05C61.3869 27.5843 62.1802 26.2683 62.4356 26.8309C62.9057 27.8664 62.7794 30.8129 63.0762 31.9309C63.5384 33.6601 63.7855 35.477 63.7855 37.3536C63.7855 39.2303 63.5384 41.0472 63.0762 42.7764Z" fill="#7C0631"/>
<path d="M14.8896 12.8218V64.0091C14.2004 62.5826 13.531 61.1602 12.8975 59.7577V15.3519C13.523 14.4793 14.1884 13.6346 14.8896 12.8218ZM24.5239 4.85304V27.05C23.6538 28.5851 22.9843 30.2254 22.5317 31.9309V6.08421C23.1811 5.64991 23.8465 5.24351 24.5239 4.85304ZM22.5317 42.7763C22.9899 44.5016 23.6632 46.1391 24.5239 47.6572V81.9945C23.8585 80.851 23.1931 79.6916 22.5317 78.5202V42.7763ZM34.1621 1.02405V18.2206C33.4768 18.5314 32.8114 18.878 32.1699 19.2566V1.56195C32.8233 1.36273 33.4887 1.18343 34.1621 1.02405ZM32.1699 55.4466C32.8114 55.8252 33.4768 56.1718 34.1621 56.4786V97.5416C33.4924 96.5306 32.8283 95.5159 32.1699 94.4975V55.4466ZM43.8003 0.0120237V16.3878C43.1366 16.3558 42.4718 16.3558 41.8081 16.3878V0.0120237C42.472 -0.00400791 43.1363 -0.00400791 43.8003 0.0120237ZM42.8042 58.3393C43.1389 58.3393 43.4696 58.3313 43.8003 58.3154V107.546C43.1668 107.817 42.4416 107.817 41.8081 107.546V58.3154C42.1388 58.3313 42.4695 58.3393 42.8042 58.3393ZM53.4385 1.56195V19.2566C52.797 18.878 52.1316 18.5314 51.4463 18.2206V1.02405C52.1196 1.18343 52.785 1.36273 53.4385 1.56195ZM51.4463 56.4786C52.1316 56.1718 52.797 55.8252 53.4385 55.4466V94.4975C52.7801 95.5159 52.116 96.5306 51.4463 97.5416V56.4786ZM63.0767 6.08421V31.9309C62.6241 30.2254 61.9545 28.5851 61.0845 27.05V4.85304C61.7618 5.24351 62.4272 5.64991 63.0767 6.08421ZM61.0845 47.6572C61.9451 46.1391 62.6185 44.5016 63.0767 42.7763V78.5202C62.4153 79.6916 61.7499 80.851 61.0845 81.9945V47.6572ZM72.7109 15.3519V59.7577C72.0774 61.1602 71.408 62.5826 70.7187 64.0091V12.8218C71.42 13.6346 72.0854 14.4793 72.7109 15.3519Z" fill="#2B3D16"/>
<path d="M54.9247 108.92H60.9013C61.1655 108.92 61.4188 108.815 61.6056 108.628C61.7924 108.442 61.8974 108.188 61.8974 107.924C61.8974 107.66 61.7924 107.407 61.6056 107.22C61.4188 107.033 61.1655 106.928 60.9013 106.928H54.9247C54.6605 106.928 54.4072 107.033 54.2204 107.22C54.0336 107.407 53.9286 107.66 53.9286 107.924C53.9286 108.188 54.0336 108.442 54.2204 108.628C54.4072 108.815 54.6605 108.92 54.9247 108.92ZM12.8143 186C12.7734 185.875 12.7084 185.76 12.623 185.661C12.5375 185.562 12.4334 185.481 12.3165 185.422C12.1996 185.363 12.0722 185.328 11.9417 185.319C11.8112 185.309 11.6801 185.325 11.556 185.367C11.4318 185.408 11.3169 185.473 11.2178 185.558C11.1188 185.644 11.0376 185.748 10.9788 185.865C10.9201 185.982 10.8849 186.109 10.8754 186.239C10.8658 186.37 10.8821 186.501 10.9233 186.625C12.2007 190.486 14.4291 194.029 17.3668 196.872C17.5601 197.06 17.8099 197.153 18.0593 197.153C18.2577 197.153 18.4516 197.093 18.6161 196.982C18.7807 196.871 18.9083 196.714 18.9827 196.53C19.0571 196.346 19.0749 196.144 19.0337 195.95C18.9926 195.756 18.8944 195.578 18.7518 195.44C16.0448 192.82 13.9912 189.556 12.8143 186ZM133.701 202.008H121.957C121.693 202.008 121.44 202.113 121.253 202.3C121.066 202.486 120.961 202.74 120.961 203.004C120.961 203.268 121.066 203.522 121.253 203.708C121.44 203.895 121.693 204 121.957 204H133.701C133.965 204 134.219 203.895 134.405 203.708C134.592 203.522 134.697 203.268 134.697 203.004C134.697 202.74 134.592 202.486 134.405 202.3C134.219 202.113 133.965 202.008 133.701 202.008ZM11.9405 174.878C12.5503 171.157 14.0522 167.639 16.3177 164.625C16.4765 164.413 16.545 164.148 16.508 163.886C16.471 163.625 16.3316 163.388 16.1205 163.23C15.9094 163.071 15.6438 163.002 15.3822 163.039C15.1206 163.076 14.8844 163.216 14.7256 163.427C12.2696 166.691 10.6264 170.541 9.9738 174.559C9.95285 174.688 9.95753 174.82 9.98759 174.948C10.0176 175.075 10.0725 175.195 10.149 175.301C10.2255 175.407 10.3221 175.497 10.4334 175.566C10.5447 175.635 10.6684 175.681 10.7976 175.702C10.9267 175.723 11.0587 175.718 11.186 175.688C11.3134 175.658 11.4335 175.603 11.5396 175.527C11.6458 175.45 11.7358 175.354 11.8046 175.242C11.8733 175.131 11.9195 175.007 11.9405 174.878ZM39.749 202.008H34.9833C32.7492 202.009 30.5265 201.691 28.3828 201.062C28.2567 201.023 28.1242 201.009 27.9929 201.022C27.8615 201.034 27.734 201.073 27.6177 201.135C27.5014 201.198 27.3987 201.283 27.3155 201.385C27.2323 201.487 27.1702 201.605 27.133 201.732C27.0957 201.859 27.0839 201.991 27.0984 202.122C27.1129 202.254 27.1532 202.381 27.2172 202.496C27.2811 202.611 27.3673 202.713 27.4709 202.795C27.5744 202.877 27.6931 202.937 27.8202 202.973C30.1466 203.655 32.5588 204.001 34.9833 204H39.749C39.8815 204.002 40.0132 203.979 40.1363 203.93C40.2594 203.881 40.3716 203.808 40.4662 203.715C40.5608 203.622 40.636 203.512 40.6873 203.39C40.7386 203.267 40.765 203.136 40.765 203.004C40.765 202.871 40.7386 202.74 40.6873 202.618C40.636 202.496 40.5608 202.385 40.4662 202.292C40.3716 202.2 40.2594 202.127 40.1363 202.078C40.0132 202.029 39.8815 202.005 39.749 202.008ZM72.6452 108.92H76.5643C79.0844 108.92 81.5567 109.339 83.9118 110.166C84.1586 110.243 84.4257 110.222 84.6568 110.106C84.8879 109.99 85.0649 109.789 85.1506 109.545C85.2362 109.301 85.2236 109.033 85.1156 108.798C85.0076 108.563 84.8126 108.38 84.5717 108.286C81.9984 107.384 79.2907 106.925 76.5639 106.928H72.6448C72.3806 106.928 72.1273 107.033 71.9405 107.22C71.7538 107.407 71.6489 107.66 71.6489 107.924C71.649 108.188 71.754 108.442 71.9408 108.629C72.1277 108.815 72.3811 108.92 72.6452 108.92ZM98.2173 126.253C98.2752 126.511 98.4329 126.735 98.6559 126.877C98.8789 127.018 99.1489 127.066 99.4067 127.008C99.6644 126.951 99.8888 126.793 100.03 126.57C100.172 126.347 100.219 126.077 100.162 125.82C99.2724 121.834 97.3595 118.106 94.6306 115.039C94.4535 114.848 94.2082 114.733 93.9475 114.72C93.6868 114.707 93.4314 114.798 93.2365 114.971C93.0415 115.145 92.9224 115.388 92.9049 115.648C92.8874 115.909 92.9728 116.166 93.1428 116.364C95.6466 119.178 97.4014 122.597 98.2173 126.253ZM35.9129 155.3C36.1771 155.3 36.4304 155.195 36.6172 155.009C36.804 154.822 36.909 154.568 36.909 154.304C36.909 154.04 36.804 153.787 36.6172 153.6C36.4304 153.413 36.1771 153.308 35.9129 153.308H34.9833C31.1723 153.308 27.5086 154.134 24.0932 155.762C23.8896 155.859 23.7251 156.023 23.6268 156.227C23.5285 156.43 23.5021 156.661 23.552 156.881C23.6019 157.101 23.7252 157.298 23.9015 157.439C24.0779 157.58 24.2969 157.657 24.5227 157.657C24.6662 157.657 24.812 157.626 24.9507 157.56C28.0959 156.061 31.4715 155.3 34.9833 155.3H35.9129ZM99.0955 136.69C98.97 136.653 98.8384 136.641 98.7083 136.656C98.5782 136.67 98.4521 136.709 98.3373 136.772C98.2225 136.835 98.1212 136.919 98.0392 137.021C97.9571 137.123 97.8959 137.24 97.8592 137.366C96.8065 140.961 94.833 144.26 92.1527 146.907C92.0572 146.998 91.9808 147.108 91.928 147.229C91.8752 147.35 91.8471 147.48 91.8452 147.613C91.8434 147.745 91.8678 147.876 91.9172 147.999C91.9665 148.121 92.0398 148.233 92.1327 148.327C92.2256 148.421 92.3363 148.495 92.4583 148.546C92.5803 148.597 92.7113 148.623 92.8434 148.623C92.9756 148.622 93.1064 148.596 93.2282 148.545C93.35 148.493 93.4604 148.418 93.5528 148.324C96.4734 145.439 98.6237 141.843 99.7713 137.926C99.8454 137.672 99.8159 137.4 99.6892 137.168C99.5624 136.936 99.3489 136.764 99.0955 136.69ZM60.3969 154.304C60.3969 154.04 60.2919 153.787 60.1051 153.6C59.9183 153.413 59.665 153.308 59.4008 153.308H47.6568C47.3926 153.308 47.1393 153.413 46.9525 153.6C46.7657 153.787 46.6607 154.04 46.6607 154.304C46.6607 154.568 46.7657 154.822 46.9525 155.009C47.1393 155.195 47.3926 155.3 47.6568 155.3H59.4008C59.665 155.3 59.9183 155.195 60.1051 155.009C60.2919 154.822 60.3969 154.568 60.3969 154.304ZM110.213 202.008H98.4688C98.2046 202.008 97.9512 202.113 97.7644 202.3C97.5776 202.486 97.4727 202.74 97.4727 203.004C97.4727 203.268 97.5776 203.522 97.7644 203.708C97.9512 203.895 98.2046 204 98.4688 204H110.213C110.477 204 110.73 203.895 110.917 203.708C111.104 203.522 111.209 203.268 111.209 203.004C111.209 202.74 111.104 202.486 110.917 202.3C110.73 202.113 110.477 202.008 110.213 202.008ZM86.7248 202.008H74.9809C74.7167 202.008 74.4633 202.113 74.2765 202.3C74.0897 202.486 73.9848 202.74 73.9848 203.004C73.9848 203.268 74.0897 203.522 74.2765 203.708C74.4633 203.895 74.7167 204 74.9809 204H86.7248C86.989 204 87.2424 203.895 87.4292 203.708C87.616 203.522 87.7209 203.268 87.7209 203.004C87.7209 202.74 87.616 202.486 87.4292 202.3C87.2424 202.113 86.989 202.008 86.7248 202.008ZM83.0771 154.413C83.2031 154.377 83.3209 154.318 83.4239 154.237C83.5268 154.156 83.6129 154.056 83.6771 153.942C83.7413 153.828 83.7825 153.703 83.7982 153.573C83.814 153.443 83.804 153.311 83.7688 153.185C83.7337 153.059 83.674 152.942 83.5933 152.839C83.5126 152.736 83.4124 152.65 83.2985 152.585C83.1845 152.521 83.059 152.48 82.9292 152.464C82.7993 152.449 82.6676 152.459 82.5416 152.494C80.5954 153.036 78.5845 153.31 76.5643 153.309H71.1447C70.8805 153.309 70.6272 153.413 70.4404 153.6C70.2536 153.787 70.1486 154.04 70.1486 154.305C70.1486 154.569 70.2536 154.822 70.4404 155.009C70.6272 155.196 70.8805 155.301 71.1447 155.301H76.5643C78.7654 155.301 80.9565 155.003 83.0771 154.413ZM63.2369 202.008H51.493C51.2288 202.008 50.9754 202.113 50.7886 202.3C50.6018 202.486 50.4969 202.74 50.4969 203.004C50.4969 203.268 50.6018 203.522 50.7886 203.708C50.9754 203.895 51.2288 204 51.493 204H63.2369C63.5011 204 63.7545 203.895 63.9413 203.708C64.1281 203.522 64.233 203.268 64.233 203.004C64.233 202.74 64.1281 202.486 63.9413 202.3C63.7545 202.113 63.5011 202.008 63.2369 202.008ZM151.5 202.008H145.524C145.26 202.008 145.006 202.113 144.819 202.3C144.633 202.486 144.528 202.74 144.528 203.004C144.528 203.268 144.633 203.522 144.819 203.708C145.006 203.895 145.26 204 145.524 204H151.5C151.765 204 152.018 203.895 152.205 203.708C152.392 203.522 152.496 203.268 152.496 203.004C152.496 202.74 152.392 202.486 152.205 202.3C152.018 202.113 151.765 202.008 151.5 202.008Z" fill="black"/>
</svg>
