<svg width="57" height="56" viewBox="0 0 57 56" fill="none" xmlns="http://www.w3.org/2000/svg">
<rect x="0.5" y="0.781738" width="56" height="54" rx="5.5" stroke="#B1B1B1" stroke-dasharray="3 3"/>
<g clip-path="url(#clip0_1_648)">
<path d="M20.8557 21.0415H20.492L19.8125 24.4399H21.5352L20.8557 21.0415ZM34.6003 27.8384C34.9672 28.8239 35.4551 29.6216 35.9951 30.3004C36.5351 29.6216 37.0797 28.8238 37.4466 27.8384H34.6003Z" fill="black"/>
<path d="M39.4507 18.436H28.8995L31.0996 36.0897C31.1385 36.8118 30.9411 37.4916 30.4698 38.0238L26.7441 42.2817H39.4507C40.8562 42.2817 41.9996 41.1384 41.9996 39.7329V21.0415C41.9996 19.636 40.8562 18.436 39.4507 18.436ZM39.4507 27.8384H39.2238C38.7404 29.3894 37.9738 30.603 37.1771 31.5598C37.8012 32.1304 38.4686 32.5985 39.1321 33.1227C39.498 33.4156 39.5578 33.9499 39.264 34.3167C38.9717 34.6828 38.4353 34.7422 38.0701 34.4486C37.3491 33.8795 36.6724 33.4031 35.9957 32.7821C35.3189 33.4031 34.6988 33.8795 33.9778 34.4486C33.6127 34.7422 33.0763 34.6828 32.7839 34.3167C32.4902 33.9499 32.5499 33.4156 32.9158 33.1227C33.5794 32.5985 34.1901 32.1304 34.8142 31.5598C34.0175 30.6031 33.3075 29.3894 32.8241 27.8384H32.5972C32.1276 27.8384 31.7476 27.4584 31.7476 26.9888C31.7476 26.5192 32.1276 26.1392 32.5972 26.1392H35.146V25.2896C35.146 24.8199 35.526 24.4399 35.9957 24.4399C36.4653 24.4399 36.8453 24.8199 36.8453 25.2896V26.1392H39.4507C39.9203 26.1392 40.3003 26.5192 40.3003 26.9888C40.3003 27.4584 39.9203 27.8384 39.4507 27.8384Z" fill="black"/>
<path d="M26.8296 15.5145C26.6711 14.2417 25.5834 13.2817 24.3007 13.2817H15.5488C14.1433 13.2817 13 14.4251 13 15.8306V34.6353C13 36.0407 14.1433 37.1841 15.5488 37.1841H28.9472C29.1951 36.9008 29.4028 36.7234 29.4116 36.3536C29.4138 36.2608 26.8411 15.6064 26.8296 15.5145ZM23.4187 29.521C22.9682 29.6137 22.5118 29.3212 22.4189 28.8547L21.8759 26.1392H19.4737L18.9307 28.8547C18.8395 29.3144 18.3964 29.6164 17.931 29.521C17.4713 29.4289 17.1726 28.9817 17.2647 28.5212L18.9639 20.0251C19.0435 19.6285 19.392 19.3423 19.7969 19.3423H21.5527C21.9576 19.3423 22.3061 19.6285 22.3857 20.0251L24.085 28.5212C24.1771 28.9817 23.8784 29.4289 23.4187 29.521ZM22.9269 38.8833L23.0727 40.049C23.1699 40.8297 23.6886 41.6258 24.5418 42.0233L27.3942 38.8833H22.9269Z" fill="black"/>
</g>
<defs>
<clipPath id="clip0_1_648">
<rect width="29" height="29" fill="white" transform="translate(13 13.2817)"/>
</clipPath>
</defs>
</svg>
