<svg width="15" height="21" viewBox="0 0 15 21" fill="none" xmlns="http://www.w3.org/2000/svg">
<path d="M13.125 7.78174H12.5V5.28174C12.5 2.52424 10.2575 0.281738 7.5 0.281738C4.7425 0.281738 2.5 2.52424 2.5 5.28174V7.78174H1.875C1.37792 7.7824 0.901393 7.98016 0.549905 8.33164C0.198418 8.68313 0.000661448 9.15966 0 9.65674V18.4067C0 19.4409 0.841667 20.2817 1.875 20.2817H13.125C14.1583 20.2817 15 19.4409 15 18.4067V9.65674C15 8.62257 14.1583 7.78174 13.125 7.78174ZM4.16667 5.28174C4.16667 3.4434 5.66167 1.9484 7.5 1.9484C9.33833 1.9484 10.8333 3.4434 10.8333 5.28174V7.78174H4.16667V5.28174ZM8.33333 14.2167V16.1151C8.33333 16.3361 8.24554 16.548 8.08926 16.7043C7.93297 16.8606 7.72101 16.9484 7.5 16.9484C7.27899 16.9484 7.06702 16.8606 6.91074 16.7043C6.75446 16.548 6.66667 16.3361 6.66667 16.1151V14.2167C6.17083 13.9276 5.83333 13.3959 5.83333 12.7817C5.83333 11.8626 6.58083 11.1151 7.5 11.1151C8.41917 11.1151 9.16667 11.8626 9.16667 12.7817C9.16667 13.3959 8.82917 13.9276 8.33333 14.2167Z" fill="#7D7D7D"/>
</svg>
