<svg width="20" height="15" viewBox="0 0 20 15" fill="none" xmlns="http://www.w3.org/2000/svg">
<path d="M18.2422 0.250488H1.75781C0.786602 0.250488 0 1.04197 0 2.0083V12.5552C0 13.5272 0.792383 14.313 1.75781 14.313H18.2422C19.2053 14.313 20 13.5306 20 12.5552V2.0083C20 1.04369 19.2165 0.250488 18.2422 0.250488ZM17.996 1.42236L11.243 8.13982C10.9109 8.47186 10.4695 8.65467 10 8.65467C9.53047 8.65467 9.08906 8.47182 8.75594 8.13873L2.00398 1.42236H17.996ZM1.17188 12.3167V2.24756L6.23586 7.28486L1.17188 12.3167ZM2.00473 13.1411L7.06672 8.11131L7.9284 8.96846C8.48176 9.52182 9.21746 9.82654 10 9.82654C10.7825 9.82654 11.5182 9.52182 12.0705 8.96955L12.9333 8.11131L17.9953 13.1411H2.00473ZM18.8281 12.3167L13.7641 7.28486L18.8281 2.24756V12.3167Z" fill="#7D7D7D"/>
</svg>
